<mxfile host="www.draw.io" modified="2023-04-13T06:14:06.352Z" agent="Mozilla/5.0 (Windows NT 10.0; Win64; x64) AppleWebKit/537.36 (KHTML, like Gecko) Chrome/112.0.0.0 Safari/537.36 Edg/112.0.1722.39" etag="mUkmqqteH9mF4UbCIQK0" version="21.1.7" type="device" pages="4">
  <diagram name="Page-1" id="twNxTRyWwyVLhboKCXoV">
    <mxGraphModel dx="521" dy="563" grid="1" gridSize="10" guides="1" tooltips="1" connect="1" arrows="1" fold="1" page="1" pageScale="1" pageWidth="850" pageHeight="1100" math="0" shadow="0">
      <root>
        <mxCell id="0" />
        <mxCell id="1" parent="0" />
        <mxCell id="qe0cwS2HoudsDotHfdjn-5" value="&amp;nbsp;employee" style="shape=umlActor;verticalLabelPosition=bottom;verticalAlign=top;html=1;outlineConnect=0;" vertex="1" parent="1">
          <mxGeometry x="100" y="270" width="30" height="60" as="geometry" />
        </mxCell>
        <mxCell id="qe0cwS2HoudsDotHfdjn-8" value="&lt;font style=&quot;font-size: 14px;&quot;&gt;Login&lt;/font&gt;" style="ellipse;whiteSpace=wrap;html=1;" vertex="1" parent="1">
          <mxGeometry x="295" y="160" width="130" height="60" as="geometry" />
        </mxCell>
        <mxCell id="qe0cwS2HoudsDotHfdjn-9" value="Type of jop" style="ellipse;whiteSpace=wrap;html=1;" vertex="1" parent="1">
          <mxGeometry x="290" y="250" width="130" height="60" as="geometry" />
        </mxCell>
        <mxCell id="qe0cwS2HoudsDotHfdjn-11" value="&#xa;&lt;span style=&quot;color: rgb(0, 0, 0); font-family: Helvetica; font-size: 12px; font-style: normal; font-variant-ligatures: normal; font-variant-caps: normal; font-weight: 400; letter-spacing: normal; orphans: 2; text-align: center; text-indent: 0px; text-transform: none; widows: 2; word-spacing: 0px; -webkit-text-stroke-width: 0px; background-color: rgb(251, 251, 251); text-decoration-thickness: initial; text-decoration-style: initial; text-decoration-color: initial; float: none; display: inline !important;&quot;&gt;&amp;nbsp;employee&lt;/span&gt;&#xa;&#xa;" style="html=1;whiteSpace=wrap;" vertex="1" parent="1">
          <mxGeometry x="240" y="80" width="110" height="50" as="geometry" />
        </mxCell>
        <mxCell id="qe0cwS2HoudsDotHfdjn-14" value="" style="swimlane;startSize=0;" vertex="1" parent="1">
          <mxGeometry x="240" y="140" width="220" height="470" as="geometry" />
        </mxCell>
        <mxCell id="qe0cwS2HoudsDotHfdjn-12" value="Rewards and&amp;nbsp;deductions" style="ellipse;whiteSpace=wrap;html=1;" vertex="1" parent="qe0cwS2HoudsDotHfdjn-14">
          <mxGeometry x="40" y="210" width="140" height="70" as="geometry" />
        </mxCell>
        <mxCell id="qe0cwS2HoudsDotHfdjn-10" value="&lt;p class=&quot;MsoNormal&quot;&gt;salary status&lt;/p&gt;" style="ellipse;whiteSpace=wrap;html=1;" vertex="1" parent="qe0cwS2HoudsDotHfdjn-14">
          <mxGeometry x="50" y="330" width="120" height="60" as="geometry" />
        </mxCell>
        <mxCell id="qe0cwS2HoudsDotHfdjn-18" value="" style="endArrow=classic;html=1;rounded=0;entryX=0;entryY=0.5;entryDx=0;entryDy=0;" edge="1" parent="1" target="qe0cwS2HoudsDotHfdjn-8">
          <mxGeometry width="50" height="50" relative="1" as="geometry">
            <mxPoint x="120" y="310" as="sourcePoint" />
            <mxPoint x="340" y="380" as="targetPoint" />
            <Array as="points">
              <mxPoint x="120" y="310" />
            </Array>
          </mxGeometry>
        </mxCell>
        <mxCell id="qe0cwS2HoudsDotHfdjn-19" value="" style="endArrow=classic;html=1;rounded=0;entryX=0;entryY=0.5;entryDx=0;entryDy=0;" edge="1" parent="1" target="qe0cwS2HoudsDotHfdjn-9">
          <mxGeometry width="50" height="50" relative="1" as="geometry">
            <mxPoint x="140" y="310" as="sourcePoint" />
            <mxPoint x="340" y="380" as="targetPoint" />
          </mxGeometry>
        </mxCell>
        <mxCell id="qe0cwS2HoudsDotHfdjn-20" value="" style="endArrow=classic;html=1;rounded=0;entryX=0;entryY=0;entryDx=0;entryDy=0;" edge="1" parent="1" target="qe0cwS2HoudsDotHfdjn-12">
          <mxGeometry width="50" height="50" relative="1" as="geometry">
            <mxPoint x="140" y="320" as="sourcePoint" />
            <mxPoint x="340" y="380" as="targetPoint" />
          </mxGeometry>
        </mxCell>
        <mxCell id="qe0cwS2HoudsDotHfdjn-21" value="" style="endArrow=classic;html=1;rounded=0;entryX=0;entryY=0;entryDx=0;entryDy=0;" edge="1" parent="1" target="qe0cwS2HoudsDotHfdjn-10">
          <mxGeometry width="50" height="50" relative="1" as="geometry">
            <mxPoint x="140" y="330" as="sourcePoint" />
            <mxPoint x="340" y="380" as="targetPoint" />
          </mxGeometry>
        </mxCell>
      </root>
    </mxGraphModel>
  </diagram>
  <diagram id="DWJ48TUcnvD5Jivx28Nj" name="Page-2">
    <mxGraphModel dx="521" dy="563" grid="1" gridSize="10" guides="1" tooltips="1" connect="1" arrows="1" fold="1" page="1" pageScale="1" pageWidth="850" pageHeight="1100" math="0" shadow="0">
      <root>
        <mxCell id="0" />
        <mxCell id="1" parent="0" />
        <mxCell id="FWAprrQNnKeOM-0v_3hj-1" value="" style="html=1;whiteSpace=wrap;" vertex="1" parent="1">
          <mxGeometry x="250" y="190" width="220" height="250" as="geometry" />
        </mxCell>
        <mxCell id="FWAprrQNnKeOM-0v_3hj-2" value="employeeÂ  reviews" style="html=1;whiteSpace=wrap;" vertex="1" parent="1">
          <mxGeometry x="250" y="130" width="130" height="40" as="geometry" />
        </mxCell>
        <mxCell id="FWAprrQNnKeOM-0v_3hj-4" value="Personal data" style="ellipse;whiteSpace=wrap;html=1;" vertex="1" parent="1">
          <mxGeometry x="285" y="220" width="140" height="70" as="geometry" />
        </mxCell>
        <mxCell id="FWAprrQNnKeOM-0v_3hj-6" value="General data" style="ellipse;whiteSpace=wrap;html=1;" vertex="1" parent="1">
          <mxGeometry x="290" y="330" width="140" height="70" as="geometry" />
        </mxCell>
        <mxCell id="FWAprrQNnKeOM-0v_3hj-9" style="edgeStyle=orthogonalEdgeStyle;rounded=0;orthogonalLoop=1;jettySize=auto;html=1;exitX=0.5;exitY=0.5;exitDx=0;exitDy=0;exitPerimeter=0;entryX=0;entryY=0.5;entryDx=0;entryDy=0;" edge="1" parent="1" source="FWAprrQNnKeOM-0v_3hj-7" target="FWAprrQNnKeOM-0v_3hj-4">
          <mxGeometry relative="1" as="geometry" />
        </mxCell>
        <mxCell id="FWAprrQNnKeOM-0v_3hj-10" style="edgeStyle=orthogonalEdgeStyle;rounded=0;orthogonalLoop=1;jettySize=auto;html=1;exitX=0.5;exitY=0.5;exitDx=0;exitDy=0;exitPerimeter=0;" edge="1" parent="1" source="FWAprrQNnKeOM-0v_3hj-7" target="FWAprrQNnKeOM-0v_3hj-6">
          <mxGeometry relative="1" as="geometry" />
        </mxCell>
        <mxCell id="FWAprrQNnKeOM-0v_3hj-7" value="&#xa;&lt;span style=&quot;color: rgb(0, 0, 0); font-family: Helvetica; font-size: 12px; font-style: normal; font-variant-ligatures: normal; font-variant-caps: normal; font-weight: 400; letter-spacing: normal; orphans: 2; text-align: center; text-indent: 0px; text-transform: none; widows: 2; word-spacing: 0px; -webkit-text-stroke-width: 0px; background-color: rgb(251, 251, 251); text-decoration-thickness: initial; text-decoration-style: initial; text-decoration-color: initial; float: none; display: inline !important;&quot;&gt;employee&lt;/span&gt;&#xa;&#xa;" style="shape=umlActor;verticalLabelPosition=bottom;verticalAlign=top;html=1;" vertex="1" parent="1">
          <mxGeometry x="80" y="280" width="30" height="50" as="geometry" />
        </mxCell>
      </root>
    </mxGraphModel>
  </diagram>
  <diagram id="mDiGWgCGQame6Dnl7pPa" name="Page-3">
    <mxGraphModel dx="521" dy="563" grid="1" gridSize="10" guides="1" tooltips="1" connect="1" arrows="1" fold="1" page="1" pageScale="1" pageWidth="850" pageHeight="1100" math="0" shadow="0">
      <root>
        <mxCell id="0" />
        <mxCell id="1" parent="0" />
        <mxCell id="D-rvryZ7tvFRitTucHF--1" value="" style="html=1;whiteSpace=wrap;" vertex="1" parent="1">
          <mxGeometry x="330" y="110" width="160" height="220" as="geometry" />
        </mxCell>
        <mxCell id="D-rvryZ7tvFRitTucHF--2" value="receptionist" style="html=1;whiteSpace=wrap;" vertex="1" parent="1">
          <mxGeometry x="330" y="50" width="110" height="50" as="geometry" />
        </mxCell>
        <mxCell id="D-rvryZ7tvFRitTucHF--4" value="Modify data" style="ellipse;whiteSpace=wrap;html=1;" vertex="1" parent="1">
          <mxGeometry x="340" y="230" width="140" height="70" as="geometry" />
        </mxCell>
        <mxCell id="D-rvryZ7tvFRitTucHF--6" value="Data Entry" style="ellipse;whiteSpace=wrap;html=1;" vertex="1" parent="1">
          <mxGeometry x="340" y="140" width="140" height="70" as="geometry" />
        </mxCell>
        <mxCell id="D-rvryZ7tvFRitTucHF--8" style="edgeStyle=orthogonalEdgeStyle;rounded=0;orthogonalLoop=1;jettySize=auto;html=1;exitX=0.5;exitY=0.5;exitDx=0;exitDy=0;exitPerimeter=0;entryX=1;entryY=0.5;entryDx=0;entryDy=0;" edge="1" parent="1" source="D-rvryZ7tvFRitTucHF--7" target="D-rvryZ7tvFRitTucHF--6">
          <mxGeometry relative="1" as="geometry">
            <mxPoint x="260" y="270" as="targetPoint" />
            <Array as="points">
              <mxPoint x="560" y="210" />
              <mxPoint x="560" y="175" />
            </Array>
          </mxGeometry>
        </mxCell>
        <mxCell id="D-rvryZ7tvFRitTucHF--9" style="edgeStyle=orthogonalEdgeStyle;rounded=0;orthogonalLoop=1;jettySize=auto;html=1;exitX=0.5;exitY=0.5;exitDx=0;exitDy=0;exitPerimeter=0;" edge="1" parent="1" source="D-rvryZ7tvFRitTucHF--7" target="D-rvryZ7tvFRitTucHF--4">
          <mxGeometry relative="1" as="geometry" />
        </mxCell>
        <mxCell id="D-rvryZ7tvFRitTucHF--7" value="receptionist" style="shape=umlActor;verticalLabelPosition=bottom;verticalAlign=top;html=1;" vertex="1" parent="1">
          <mxGeometry x="640" y="180" width="30" height="60" as="geometry" />
        </mxCell>
      </root>
    </mxGraphModel>
  </diagram>
  <diagram id="vSuHJAFyiZttmlXFWI7q" name="Page-4">
    <mxGraphModel dx="521" dy="563" grid="1" gridSize="10" guides="1" tooltips="1" connect="1" arrows="1" fold="1" page="1" pageScale="1" pageWidth="850" pageHeight="1100" math="0" shadow="0">
      <root>
        <mxCell id="0" />
        <mxCell id="1" parent="0" />
        <mxCell id="1-K4en8Kt2VWJazmZd2p-2" value="" style="html=1;whiteSpace=wrap;" vertex="1" parent="1">
          <mxGeometry x="290" y="160" width="170" height="320" as="geometry" />
        </mxCell>
        <mxCell id="1-K4en8Kt2VWJazmZd2p-3" value="foreman manager" style="html=1;whiteSpace=wrap;" vertex="1" parent="1">
          <mxGeometry x="290" y="110" width="110" height="40" as="geometry" />
        </mxCell>
        <mxCell id="1-K4en8Kt2VWJazmZd2p-5" value="job Title" style="ellipse;whiteSpace=wrap;html=1;" vertex="1" parent="1">
          <mxGeometry x="300" y="285" width="140" height="70" as="geometry" />
        </mxCell>
        <mxCell id="1-K4en8Kt2VWJazmZd2p-6" value="Type of job" style="ellipse;whiteSpace=wrap;html=1;" vertex="1" parent="1">
          <mxGeometry x="305" y="380" width="140" height="70" as="geometry" />
        </mxCell>
        <mxCell id="1-K4en8Kt2VWJazmZd2p-7" value="Employee" style="ellipse;whiteSpace=wrap;html=1;" vertex="1" parent="1">
          <mxGeometry x="300" y="190" width="140" height="70" as="geometry" />
        </mxCell>
        <mxCell id="1-K4en8Kt2VWJazmZd2p-9" style="edgeStyle=orthogonalEdgeStyle;rounded=0;orthogonalLoop=1;jettySize=auto;html=1;exitX=0.5;exitY=0.5;exitDx=0;exitDy=0;exitPerimeter=0;" edge="1" parent="1" source="1-K4en8Kt2VWJazmZd2p-8" target="1-K4en8Kt2VWJazmZd2p-7">
          <mxGeometry relative="1" as="geometry">
            <Array as="points">
              <mxPoint x="240" y="270" />
              <mxPoint x="240" y="225" />
            </Array>
          </mxGeometry>
        </mxCell>
        <mxCell id="1-K4en8Kt2VWJazmZd2p-10" style="edgeStyle=orthogonalEdgeStyle;rounded=0;orthogonalLoop=1;jettySize=auto;html=1;exitX=0.5;exitY=0.5;exitDx=0;exitDy=0;exitPerimeter=0;" edge="1" parent="1" source="1-K4en8Kt2VWJazmZd2p-8" target="1-K4en8Kt2VWJazmZd2p-5">
          <mxGeometry relative="1" as="geometry">
            <Array as="points">
              <mxPoint x="240" y="270" />
              <mxPoint x="240" y="320" />
            </Array>
          </mxGeometry>
        </mxCell>
        <mxCell id="1-K4en8Kt2VWJazmZd2p-11" style="edgeStyle=orthogonalEdgeStyle;rounded=0;orthogonalLoop=1;jettySize=auto;html=1;exitX=0.5;exitY=0.5;exitDx=0;exitDy=0;exitPerimeter=0;entryX=0;entryY=0.5;entryDx=0;entryDy=0;" edge="1" parent="1" source="1-K4en8Kt2VWJazmZd2p-8" target="1-K4en8Kt2VWJazmZd2p-6">
          <mxGeometry relative="1" as="geometry">
            <Array as="points">
              <mxPoint x="240" y="270" />
              <mxPoint x="240" y="415" />
            </Array>
          </mxGeometry>
        </mxCell>
        <mxCell id="1-K4en8Kt2VWJazmZd2p-8" value="&#xa;&lt;span style=&quot;color: rgb(0, 0, 0); font-family: Helvetica; font-size: 12px; font-style: normal; font-variant-ligatures: normal; font-variant-caps: normal; font-weight: 400; letter-spacing: normal; orphans: 2; text-align: center; text-indent: 0px; text-transform: none; widows: 2; word-spacing: 0px; -webkit-text-stroke-width: 0px; background-color: rgb(251, 251, 251); text-decoration-thickness: initial; text-decoration-style: initial; text-decoration-color: initial; float: none; display: inline !important;&quot;&gt;foreman manager&lt;/span&gt;&#xa;&#xa;" style="shape=umlActor;verticalLabelPosition=bottom;verticalAlign=top;html=1;" vertex="1" parent="1">
          <mxGeometry x="80" y="240" width="30" height="60" as="geometry" />
        </mxCell>
      </root>
    </mxGraphModel>
  </diagram>
</mxfile>
